<?xml version="1.0" encoding="UTF-8"?>
<!DOCTYPE svg PUBLIC "-//W3C//DTD SVG 1.1//EN" "http://www.w3.org/Graphics/SVG/1.1/DTD/svg11.dtd">
<svg xmlns="http://www.w3.org/2000/svg" version="1.1" width="5000px" height="5000px" style="shape-rendering:geometricPrecision; text-rendering:geometricPrecision; image-rendering:optimizeQuality; fill-rule:evenodd; clip-rule:evenodd" xmlns:xlink="http://www.w3.org/1999/xlink">
<g><path style="opacity:0.999" fill="#35495e" d="M 3992.5,1282.5 C 3697.29,1797.06 3401.62,2311.39 3105.5,2825.5C 2903.4,2470.97 2701.07,2116.64 2498.5,1762.5C 2496.3,1767.91 2493.8,1773.25 2491,1778.5C 2291.83,2127.5 2092.67,2476.5 1893.5,2825.5C 1597.38,2311.39 1301.71,1797.06 1006.5,1282.5C 1187.5,1282.17 1368.5,1282.5 1549.5,1283.5C 1664.13,1480.63 1778.97,1677.63 1894,1874.5C 2005.04,1678.92 2116.21,1483.42 2227.5,1288C 2226.62,1286.41 2225.62,1284.91 2224.5,1283.5C 2407.83,1280.83 2591.17,1280.83 2774.5,1283.5C 2773.38,1284.91 2772.38,1286.41 2771.5,1288C 2882.79,1483.42 2993.96,1678.92 3105,1874.5C 3220.03,1677.63 3334.87,1480.63 3449.5,1283.5C 3630.5,1282.5 3811.5,1282.17 3992.5,1282.5 Z"/></g>
<g><path style="opacity:0.999" fill="#40b782" d="M 1006.5,1282.5 C 1301.71,1797.06 1597.38,2311.39 1893.5,2825.5C 2092.67,2476.5 2291.83,2127.5 2491,1778.5C 2493.8,1773.25 2496.3,1767.91 2498.5,1762.5C 2701.07,2116.64 2903.4,2470.97 3105.5,2825.5C 3401.62,2311.39 3697.29,1797.06 3992.5,1282.5C 4185.5,1282.33 4378.5,1282.5 4571.5,1283C 4082.46,2136.25 3593.29,2989.41 3104,3842.5C 2902.75,3491.67 2701.25,3141 2499.5,2790.5C 2297.83,3140.51 2096.66,3490.84 1896,3841.5C 1895.33,3842.83 1894.67,3842.83 1894,3841.5C 1405.29,2988.59 916.46,2135.75 427.5,1283C 620.5,1282.5 813.5,1282.33 1006.5,1282.5 Z"/></g>
</svg>
